<?xml version="1.0" encoding="UTF-8"?>
<svg id="uuid-5917f7ae-c1ac-4d9a-a108-33e27971c9c3" data-name="Layer 2" xmlns="http://www.w3.org/2000/svg" viewBox="0 0 501.3 310.95">
  <defs>
    <style>
      .uuid-b48c303f-a0ed-4774-97b4-38a6bb14f4a1 {
        fill: #fff;
      }

      .uuid-5841b4f5-7816-491e-b3f9-77ddd2bfda02 {
        fill: #f60;
      }

      .uuid-5841b4f5-7816-491e-b3f9-77ddd2bfda02, .uuid-3a09080e-263f-4a20-8b15-63aeeac88f58 {
        stroke: #000;
        stroke-miterlimit: 10;
      }

      .uuid-3a09080e-263f-4a20-8b15-63aeeac88f58 {
        fill: none;
      }
    </style>
  </defs>
  <g id="uuid-ed91720d-63e6-434f-bbfe-556c03a98cf3" data-name="edu_hat">
    <g id="uuid-4c5f5670-b68c-4b18-95ff-8765d0592ce9" data-name="hat solo">
      <g>
        <path class="uuid-5841b4f5-7816-491e-b3f9-77ddd2bfda02" d="m70.09,138.92l-.86,120.39c-2.46.24-6.11,3.62-6.61,6.39l-4.64,25.79c-.35,1.95-1.4,3.7-2.95,4.92l-1.6,1.26c-2.12,1.66-1.55,5.04,1,5.9l19.71,6.64c2.37.8,4.94-.41,5.87-2.75h0c2.86-7.22,3.78-14.52,4.33-22.69v-9.38c0-5.76-2.05-13.45-5.97-15.04l1.08-119.99c-1.94-1.78-7.01-2.62-9.35-1.43Z"/>
        <ellipse class="uuid-5841b4f5-7816-491e-b3f9-77ddd2bfda02" cx="73.1" cy="258.99" rx="7.92" ry="8"/>
      </g>
      <path class="uuid-5841b4f5-7816-491e-b3f9-77ddd2bfda02" d="m102.56,114.14l146.23,63.01,146.22-63.01v89.84c0,4.66-1.82,9.19-5.16,12.85h0c-71.93,78.76-210.2,78.76-282.13,0h0c-3.34-3.66-5.16-8.18-5.16-12.85v-89.84Z"/>
      <path class="uuid-5841b4f5-7816-491e-b3f9-77ddd2bfda02" d="m499.78,106.97L252.9.96c-1.44-.62-3.07-.62-4.5,0L1.52,106.97c-1.36.58-1.36,2.5,0,3.08l246.88,106.01c1.44.62,3.07.62,4.5,0l246.88-106.01c1.36-.58,1.36-2.5,0-3.08Z"/>
      <path class="uuid-b48c303f-a0ed-4774-97b4-38a6bb14f4a1" d="m334.36,139.92c16.15-17.38,15.42-41.32-9.55-61.49-15.79-12.78-42.28-34.66-111.15-42.87-.66-.07-15.82-2.14-38.14-2.86l-32.65,14.02c23.16-.28,43.17,1.44,55.02,2.5,40.56,3.63,61.27,12.66,85.64,28.97,23.38,15.71,20.05,40.39-.19,53.77-27.04,17.87-60.4,25.58-111.71,25.05-47.2-.48-84.6-20.7-91.23-34.78-6.69-14.11-8.02-25.22,24.76-36.64,34.62-12.05,81.96-5.16,101.29,4.66,23.12,11.71,15.02,25.04-4.47,28.8-22.3,4.33-48.25.4-48.24-7.51-.07-11.37,20.59-11.13,20.59-11.13,0,0-46.71-14.96-64.27,8.22-16.15,21.33,53.49,38.38,102.91,29.97,27.49-4.67,85.89-20.2,34.07-57.11-30.35-21.64-94.32-25.2-143.74-17.78l-63.73,27.37c-6.49,10.2-4.84,21.4-.47,30.71.84,1.79,2.03,3.73,3.47,5.76l107.97,46.36c3.17.37,6.33.74,9.67,1.04,79.96,6.93,155.39-14.8,174.17-35.03Z"/>
      <path class="uuid-3a09080e-263f-4a20-8b15-63aeeac88f58" d="m499.78,106.97L252.9.96c-1.44-.62-3.07-.62-4.5,0L1.52,106.97c-1.36.58-1.36,2.5,0,3.08l246.88,106.01c1.44.62,3.07.62,4.5,0l246.88-106.01c1.36-.58,1.36-2.5,0-3.08Z"/>
    </g>
  </g>
</svg>