<?xml version="1.0" encoding="UTF-8"?>
<svg id="Layer_2" data-name="Layer 2" xmlns="http://www.w3.org/2000/svg" viewBox="0 0 462.96 464.75">
  <defs>
    <style>
      .cls-1 {
        stroke-width: 16px;
      }

      .cls-1, .cls-2, .cls-3, .cls-4 {
        fill: #f60;
      }

      .cls-1, .cls-2, .cls-4 {
        stroke: #f60;
      }

      .cls-1, .cls-4 {
        stroke-linecap: round;
      }

      .cls-5 {
        fill: #fff;
      }

      .cls-6 {
        fill: #332247;
      }

      .cls-2 {
        fill-rule: evenodd;
      }

      .cls-2, .cls-3 {
        stroke-miterlimit: 10;
      }

      .cls-3 {
        stroke: #000;
      }

      .cls-4 {
        stroke-width: 17px;
      }
    </style>
  </defs>
  <g id="base_vector" data-name="base vector">
    <g>
      <path id="path43294" class="cls-1" d="m90.5,428.6c0,15.54-12.64,28.15-28.23,28.15-15.6,0-28.24-12.59-28.24-28.14,0,0,0,0,0-.01,0-15.54,12.64-28.15,28.23-28.15,15.6,0,28.24,12.59,28.24,28.14h0Z"/>
      <path id="path43290" class="cls-4" d="m82.23,408.68L417.29,83.93"/>
      <polygon class="cls-2" points="461.97 39.25 369.16 80.49 420.73 132.06 461.97 39.25"/>
    </g>
  </g>
  <g id="edu">
    <g>
      <circle class="cls-6" cx="101.14" cy="101.14" r="101.14"/>
      <path class="cls-3" d="m45.66,87.27l54.78,23.61,54.78-23.61v33.66c0,1.75-.68,3.44-1.93,4.81h0c-26.95,29.51-78.75,29.51-105.7,0h0c-1.25-1.37-1.93-3.07-1.93-4.81v-33.66Z"/>
      <path class="cls-3" d="m33.5,93.31l-.32,45.1c-.92.09-2.29,1.36-2.47,2.39l-1.74,9.66c-.13.73-.52,1.39-1.11,1.84l-.6.47c-.79.62-.58,1.89.37,2.21l7.38,2.49c.89.3,1.85-.15,2.2-1.03h0c1.07-2.7,1.42-5.44,1.62-8.5v-3.51c0-2.16-.77-5.04-2.24-5.63l.4-44.95c-.73-.67-2.63-.98-3.5-.54Z"/>
      <path class="cls-3" d="m192.23,83.62l-88.84-38.14c-1.44-.62-3.07-.62-4.5,0L10.05,83.62c-1.36.58-1.36,2.5,0,3.08l88.84,38.14c1.44.62,3.07.62,4.5,0l88.84-38.14c1.36-.58,1.36-2.5,0-3.08Z"/>
      <path class="cls-5" d="m131.49,96.73c5.96-6.41,5.69-15.25-3.52-22.7-5.83-4.72-15.6-12.79-41.03-15.82-.24-.03-5.84-.79-14.08-1.06l-12.05,5.18c8.55-.1,15.93.53,20.31.92,14.97,1.34,22.62,4.67,31.61,10.69,8.63,5.8,7.4,14.91-.07,19.85-9.98,6.6-22.29,9.44-41.23,9.25-17.42-.18-31.23-7.64-33.67-12.84-2.47-5.21-2.96-9.31,9.14-13.52,12.78-4.45,30.25-1.91,37.38,1.72,8.53,4.32,5.55,9.24-1.65,10.63-8.23,1.6-17.81.15-17.81-2.77-.03-4.2,7.6-4.11,7.6-4.11,0,0-17.24-5.52-23.72,3.04-5.96,7.87,19.74,14.17,37.98,11.06,10.15-1.72,31.7-7.46,12.57-21.08-11.2-7.99-34.81-9.3-53.05-6.56l-23.52,10.1c-2.4,3.77-1.79,7.9-.17,11.34.31.66.75,1.38,1.28,2.13l39.85,17.11c1.17.14,2.34.27,3.57.38,29.51,2.56,57.36-5.46,64.29-12.93Z"/>
      <ellipse class="cls-3" cx="34.62" cy="138.29" rx="2.97" ry="3"/>
    </g>
    <g>
      <path id="path43294-2" data-name="path43294" class="cls-1" d="m90.5,428.6c0,15.54-12.64,28.15-28.23,28.15-15.6,0-28.24-12.59-28.24-28.14,0,0,0,0,0-.01,0-15.54,12.64-28.15,28.23-28.15,15.6,0,28.24,12.59,28.24,28.14h0Z"/>
      <path id="path43290-2" data-name="path43290" class="cls-4" d="m82.23,408.68L417.29,83.93"/>
      <polygon class="cls-2" points="461.97 39.25 369.16 80.49 420.73 132.06 461.97 39.25"/>
    </g>
  </g>
</svg>