<?xml version="1.0" encoding="UTF-8"?>
<svg id="Layer_2" data-name="Layer 2" xmlns="http://www.w3.org/2000/svg" xmlns:xlink="http://www.w3.org/1999/xlink" viewBox="0 0 494 492.97">
  <defs>
    <style>
      .cls-1 {
        fill: url(#linear-gradient);
      }

      .cls-1, .cls-2, .cls-3, .cls-4 {
        fill-rule: evenodd;
      }

      .cls-5 {
        fill: #fff;
      }

      .cls-6, .cls-7 {
        fill: #f60;
      }

      .cls-8 {
        fill: #332247;
      }

      .cls-9 {
        fill: #3465a4;
      }

      .cls-10, .cls-4 {
        fill: #2e3436;
      }

      .cls-2 {
        fill: rgba(255, 255, 255, .75);
      }

      .cls-7 {
        stroke: #000;
        stroke-miterlimit: 10;
      }

      .cls-3 {
        fill: rgba(238, 238, 236, .72);
      }
    </style>
    <linearGradient id="linear-gradient" x1="3188.94" y1="-1152.38" x2="3188.94" y2="-1472.64" gradientTransform="translate(-499.18 -10.44) rotate(-5.35) scale(.26 -.38)" gradientUnits="userSpaceOnUse">
      <stop offset="0" stop-color="#ddddd8"/>
      <stop offset="1" stop-color="#fff"/>
    </linearGradient>
  </defs>
  <g id="matrix_visualizer" data-name="matrix visualizer">
    <g id="layer1">
      <rect id="rect16304" class="cls-6" x="71.28" y="81.21" width="65.15" height="64.64"/>
      <rect id="rect16325" class="cls-6" x="169.63" y="82.86" width="62.08" height="62.59"/>
      <rect id="rect16327" class="cls-6" x="263.32" y="80.81" width="65.15" height="64.64"/>
      <rect id="rect16329" class="cls-6" x="360.59" y="80.3" width="64.13" height="65.15"/>
      <rect id="rect17925" class="cls-6" x="71.28" y="176.37" width="65.15" height="64.64"/>
      <rect id="rect17927" class="cls-6" x="169.63" y="178.01" width="62.08" height="62.59"/>
      <rect id="rect17929" class="cls-6" x="263.32" y="175.96" width="65.15" height="64.64"/>
      <rect id="rect17931" class="cls-6" x="360.59" y="175.45" width="64.13" height="65.15"/>
      <rect id="rect17933" class="cls-6" x="71.28" y="274.08" width="65.15" height="64.64"/>
      <rect id="rect17935" class="cls-6" x="169.63" y="275.72" width="62.08" height="62.59"/>
      <rect id="rect17937" class="cls-6" x="263.32" y="273.67" width="65.15" height="64.64"/>
      <rect id="rect17939" class="cls-6" x="360.59" y="273.16" width="64.13" height="65.15"/>
      <rect id="rect17941" class="cls-6" x="71.28" y="371.79" width="65.15" height="64.64"/>
      <rect id="rect17943" class="cls-6" x="169.63" y="373.43" width="62.08" height="62.59"/>
      <rect id="rect17945" class="cls-6" x="263.32" y="371.38" width="65.15" height="64.64"/>
      <rect id="rect17947" class="cls-6" x="360.59" y="370.87" width="64.13" height="65.15"/>
    </g>
    <g id="layer1-2" data-name="layer1">
      <path id="path52252" class="cls-1" d="m270.14,413.18c79.78-125.76,165.26-66.96,215.01-2.62-33.69,122.06-173.11,86.86-215.01,2.62Z"/>
      <path id="path2844" class="cls-2" d="m272.12,417.85c64.08,4.31,134.75,4.43,195.64-11.77-70.38-47.98-159.36-21.98-195.64,11.77Z"/>
      <path id="path52221" class="cls-9" d="m422.55,410.17c2.32,24.65-15.79,46.52-40.44,48.84-24.65,2.32-46.52-15.79-48.84-40.44,0-.01,0-.02,0-.04-2.32-24.65,15.79-46.52,40.44-48.84,24.65-2.32,46.52,15.79,48.84,40.44v.04Z"/>
      <path id="path52223" class="cls-10" d="m389.67,414.11c.74,7.87-5.04,14.85-12.91,15.59-7.87.74-14.85-5.04-15.59-12.91,0,0,0,0,0-.01-.74-7.87,5.04-14.85,12.91-15.59,7.87-.74,14.85,5.04,15.59,12.91h0Z"/>
      <path id="path52225" class="cls-3" d="m375.26,404.67s-3.59-12.48-5.17-18.22c-9.24,1.21-24.9,7.87-28.22,13.04,2.95,5.61,7.75,12.44,9.88,16.74,8.38-6.67,14.96-10.41,23.51-11.56Z"/>
      <path id="path52217" class="cls-4" d="m266.27,417.79c81.07-66.85,148.93-66.86,207.75-6.73l15.42-14.5c-40.2-49.68-65.18-67.12-123.35-61.67-58.16,5.45-99.85,84.68-99.83,82.9Z"/>
      <path id="path52227" class="cls-4" d="m269.06,416.53c84.95,76.86,140.49,64.46,201.48,2.53l23.46,18.26c-87.23,85.55-166.71,67.65-224.94-20.79Z"/>
      <path id="path52229" class="cls-4" d="m489.79,358.41c-58.22-124.43-180.79-110.43-224.12,1.97,61.97-59.94,143.83-84.79,224.12-1.97Z"/>
    </g>
  </g>
  <g id="edu">
    <g>
      <circle class="cls-8" cx="101.14" cy="101.14" r="101.14"/>
      <path class="cls-7" d="m45.66,87.27l54.78,23.61,54.78-23.61v33.66c0,1.75-.68,3.44-1.93,4.81h0c-26.95,29.51-78.75,29.51-105.7,0h0c-1.25-1.37-1.93-3.07-1.93-4.81v-33.66Z"/>
      <path class="cls-7" d="m33.5,93.31l-.32,45.1c-.92.09-2.29,1.36-2.47,2.39l-1.74,9.66c-.13.73-.52,1.39-1.11,1.84l-.6.47c-.79.62-.58,1.89.37,2.21l7.38,2.49c.89.3,1.85-.15,2.2-1.03h0c1.07-2.7,1.42-5.44,1.62-8.5v-3.51c0-2.16-.77-5.04-2.24-5.63l.4-44.95c-.73-.67-2.63-.98-3.5-.54Z"/>
      <path class="cls-7" d="m192.23,83.62l-88.84-38.14c-1.44-.62-3.07-.62-4.5,0L10.05,83.62c-1.36.58-1.36,2.5,0,3.08l88.84,38.14c1.44.62,3.07.62,4.5,0l88.84-38.14c1.36-.58,1.36-2.5,0-3.08Z"/>
      <path class="cls-5" d="m131.49,96.73c5.96-6.41,5.69-15.25-3.52-22.7-5.83-4.72-15.6-12.79-41.03-15.82-.24-.03-5.84-.79-14.08-1.06l-12.05,5.18c8.55-.1,15.93.53,20.31.92,14.97,1.34,22.62,4.67,31.61,10.69,8.63,5.8,7.4,14.91-.07,19.85-9.98,6.6-22.29,9.44-41.23,9.25-17.42-.18-31.23-7.64-33.67-12.84-2.47-5.21-2.96-9.31,9.14-13.52,12.78-4.45,30.25-1.91,37.38,1.72,8.53,4.32,5.55,9.24-1.65,10.63-8.23,1.6-17.81.15-17.81-2.77-.03-4.2,7.6-4.11,7.6-4.11,0,0-17.24-5.52-23.72,3.04-5.96,7.87,19.74,14.17,37.98,11.06,10.15-1.72,31.7-7.46,12.57-21.08-11.2-7.99-34.81-9.3-53.05-6.56l-23.52,10.1c-2.4,3.77-1.79,7.9-.17,11.34.31.66.75,1.38,1.28,2.13l39.85,17.11c1.17.14,2.34.27,3.57.38,29.51,2.56,57.36-5.46,64.29-12.93Z"/>
      <ellipse class="cls-7" cx="34.62" cy="138.29" rx="2.97" ry="3"/>
    </g>
  </g>
</svg>