<?xml version="1.0" encoding="UTF-8"?>
<svg id="Layer_2" data-name="Layer 2" xmlns="http://www.w3.org/2000/svg" xmlns:xlink="http://www.w3.org/1999/xlink" viewBox="0 0 489 489">
  <defs>
    <style>
      .cls-1, .cls-2 {
        fill: #fff;
      }

      .cls-3 {
        fill: #332247;
      }

      .cls-2, .cls-4, .cls-5 {
        stroke: #000;
      }

      .cls-2, .cls-5 {
        stroke-width: 2px;
      }

      .cls-2, .cls-6 {
        fill-rule: evenodd;
      }

      .cls-4 {
        fill: #f60;
        stroke-miterlimit: 10;
      }

      .cls-5 {
        fill: url(#linear-gradient);
      }

      .cls-7 {
        fill: none;
        stroke: #fff;
      }

      .cls-6 {
        fill: url(#radial-gradient);
        stroke: #8b6f00;
        stroke-width: 1px;
      }
    </style>
    <radialGradient id="radial-gradient" cx="-853.46" cy="650.35" fx="-853.46" fy="650.35" r="145.64" gradientTransform="translate(1237.39 -954.82) rotate(-92.01) scale(1.53 -1.5)" gradientUnits="userSpaceOnUse">
      <stop offset="0" stop-color="#fff"/>
      <stop offset="1" stop-color="#fcce1b"/>
    </radialGradient>
    <linearGradient id="linear-gradient" x1="-241.35" y1="381.43" x2="-85.46" y2="381.43" gradientTransform="translate(573.47 22.61) scale(1.05 1)" gradientUnits="userSpaceOnUse">
      <stop offset="0" stop-color="#fff"/>
      <stop offset="1" stop-color="#000"/>
    </linearGradient>
  </defs>
  <g id="portal_MIS_bias" data-name="portal MIS bias">
    <g id="layer1">
      <path id="path2393" class="cls-6" d="m100.44,110.88l213.67,96.98c2.85,1.01,2.73,5.09-.18,5.93l-222.96,86.76,107.29,31.36,22.73-22.2,83.99,86.15-167.94-.71,25.63-26.63-124.24-54.43c-10.94-4.5-24.1-14.71,1.33-23.53l230.46-80.88L100.44,110.88"/>
    </g>
    <g id="layer2">
      <rect id="rect23079" class="cls-5" x="316.12" y="353.04" width="171.88" height="101.99"/>
      <path id="path23195" class="cls-7" d="m403.49,451.47v-94.14"/>
      <path id="path23191" class="cls-2" d="m375.55,316.59h55.87l-27.93,48.38-27.93-48.38Z"/>
      <path id="path23219" class="cls-2" d="m375.55,488h55.87l-27.93-48.38-27.93,48.38Z"/>
    </g>
  </g>
  <g id="edu">
    <g>
      <circle class="cls-3" cx="101.14" cy="101.14" r="101.14"/>
      <path class="cls-4" d="m45.66,87.27l54.78,23.61,54.78-23.61v33.66c0,1.75-.68,3.44-1.93,4.81h0c-26.95,29.51-78.75,29.51-105.7,0h0c-1.25-1.37-1.93-3.07-1.93-4.81v-33.66Z"/>
      <path class="cls-4" d="m33.5,93.31l-.32,45.1c-.92.09-2.29,1.36-2.47,2.39l-1.74,9.66c-.13.73-.52,1.39-1.11,1.84l-.6.47c-.79.62-.58,1.89.37,2.21l7.38,2.49c.89.3,1.85-.15,2.2-1.03h0c1.07-2.7,1.42-5.44,1.62-8.5v-3.51c0-2.16-.77-5.04-2.24-5.63l.4-44.95c-.73-.67-2.63-.98-3.5-.54Z"/>
      <path class="cls-4" d="m192.23,83.62l-88.84-38.14c-1.44-.62-3.07-.62-4.5,0L10.05,83.62c-1.36.58-1.36,2.5,0,3.08l88.84,38.14c1.44.62,3.07.62,4.5,0l88.84-38.14c1.36-.58,1.36-2.5,0-3.08Z"/>
      <path class="cls-1" d="m131.49,96.73c5.96-6.41,5.69-15.25-3.52-22.7-5.83-4.72-15.6-12.79-41.03-15.82-.24-.03-5.84-.79-14.08-1.06l-12.05,5.18c8.55-.1,15.93.53,20.31.92,14.97,1.34,22.62,4.67,31.61,10.69,8.63,5.8,7.4,14.91-.07,19.85-9.98,6.6-22.29,9.44-41.23,9.25-17.42-.18-31.23-7.64-33.67-12.84-2.47-5.21-2.96-9.31,9.14-13.52,12.78-4.45,30.25-1.91,37.38,1.72,8.53,4.32,5.55,9.24-1.65,10.63-8.23,1.6-17.81.15-17.81-2.77-.03-4.2,7.6-4.11,7.6-4.11,0,0-17.24-5.52-23.72,3.04-5.96,7.87,19.74,14.17,37.98,11.06,10.15-1.72,31.7-7.46,12.57-21.08-11.2-7.99-34.81-9.3-53.05-6.56l-23.52,10.1c-2.4,3.77-1.79,7.9-.17,11.34.31.66.75,1.38,1.28,2.13l39.85,17.11c1.17.14,2.34.27,3.57.38,29.51,2.56,57.36-5.46,64.29-12.93Z"/>
      <ellipse class="cls-4" cx="34.62" cy="138.29" rx="2.97" ry="3"/>
    </g>
  </g>
</svg>