<?xml version="1.0" encoding="utf-8"?>
<!-- Generator: Adobe Illustrator 28.1.0, SVG Export Plug-In . SVG Version: 6.00 Build 0)  -->
<svg version="1.1" id="Layer_1" xmlns="http://www.w3.org/2000/svg" xmlns:xlink="http://www.w3.org/1999/xlink" x="0px" y="0px"
	 viewBox="0 0 400 400" style="enable-background:new 0 0 400 400;" xml:space="preserve">
<style type="text/css">
	.st0{fill:#FF6600;}
</style>
<path class="st0" d="M0,0v400h400V0H0z M305.1,254.6c0,40.3-47.1,55.6-105.1,55.6h0c-58,0-105.1-15.4-105.1-55.6v-57.3l83.6,32.5
	c7.7,3,15.9,3.6,21.5,3.6c5.6,0,13.8-0.6,21.5-3.6l83.6-32.5V254.6z M372.6,155L216,215.9c-8.9,3.4-23.2,3.4-32.1,0L61,168.1v67.1
	c5.1,2.7,8.5,8,8.5,14.1c0,5.2-2.5,9.9-6.4,12.8l5.2,28.2c0.9,5-2.9,9.6-8,9.6H46.7c-5.1,0-8.9-4.6-8-9.6l5.2-28.2
	c-3.9-2.9-6.4-7.6-6.4-12.8c0-6.1,3.4-11.4,8.5-14.1v-72.9L27.4,155c-8.9-3.4-8.9-9,0-12.5L184,81.6c8.9-3.4,23.2-3.4,32.1,0
	l156.6,60.9C381.4,146,381.4,151.6,372.6,155z"/>
</svg>
