<?xml version="1.0" encoding="UTF-8"?>
<svg id="uuid-090b37bc-71ad-4e1f-b036-0a67606a1b23" data-name="Layer 2" xmlns="http://www.w3.org/2000/svg" viewBox="0 0 500 500">
  <defs>
    <style>
      .uuid-ae2ddaa8-da66-4752-a7d5-14fa3fb7d4f4 {
        fill: #fff;
      }

      .uuid-f77ff66e-0975-4cfb-b577-8717a60bf976 {
        fill: #332247;
      }

      .uuid-95bda6fe-29c1-407b-85d9-d86d372dbaa9 {
        fill: #f60;
        stroke: #000;
        stroke-miterlimit: 10;
      }
    </style>
  </defs>
  <g id="uuid-ffe661e5-51e2-4266-945b-a51c99abd276" data-name="edu_hat">
    <g>
      <circle class="uuid-f77ff66e-0975-4cfb-b577-8717a60bf976" cx="250" cy="250" r="250"/>
      <path class="uuid-95bda6fe-29c1-407b-85d9-d86d372dbaa9" d="m112.87,215.72l135.41,58.35,135.41-58.35v83.2c0,4.32-1.68,8.51-4.78,11.9h0c-66.61,72.93-194.65,72.93-261.26,0h0c-3.09-3.39-4.78-7.58-4.78-11.9v-83.2Z"/>
      <path class="uuid-95bda6fe-29c1-407b-85d9-d86d372dbaa9" d="m82.8,230.65l-.8,111.49c-2.28.22-5.66,3.36-6.12,5.92l-4.3,23.88c-.32,1.81-1.3,3.43-2.73,4.55l-1.49,1.17c-1.96,1.54-1.43,4.67.93,5.46l18.25,6.15c2.19.74,4.58-.38,5.44-2.55h0c2.65-6.68,3.5-13.45,4.01-21.01v-8.69c0-5.33-1.89-12.45-5.53-13.93l1-111.12c-1.79-1.65-6.49-2.42-8.66-1.33Z"/>
      <path class="uuid-95bda6fe-29c1-407b-85d9-d86d372dbaa9" d="m480.44,208.97l-228.19-97.98c-1.44-.62-3.07-.62-4.5,0L19.56,208.97c-1.36.58-1.36,2.5,0,3.08l228.19,97.98c1.44.62,3.07.62,4.5,0l228.19-97.98c1.36-.58,1.36-2.5,0-3.08Z"/>
      <path class="uuid-ae2ddaa8-da66-4752-a7d5-14fa3fb7d4f4" d="m325.03,239.11c14.73-15.86,14.07-37.7-8.71-56.1-14.4-11.66-38.57-31.62-101.41-39.11-.6-.06-14.44-1.95-34.8-2.61l-29.79,12.79c21.13-.25,39.39,1.31,50.19,2.28,37.01,3.31,55.9,11.55,78.13,26.43,21.33,14.33,18.3,36.85-.18,49.06-24.67,16.31-55.11,23.34-101.92,22.85-43.06-.43-77.19-18.89-83.24-31.73-6.1-12.87-7.32-23.01,22.59-33.43,31.58-11,74.77-4.71,92.41,4.26,21.09,10.69,13.71,22.85-4.08,26.28-20.35,3.95-44.02.36-44.01-6.85-.07-10.37,18.79-10.15,18.79-10.15,0,0-42.61-13.65-58.64,7.5-14.73,19.46,48.8,35.02,93.89,27.34,25.08-4.26,78.36-18.43,31.08-52.11-27.69-19.75-86.06-23-131.14-16.23l-58.15,24.97c-5.92,9.31-4.41,19.53-.43,28.02.77,1.63,1.85,3.4,3.16,5.25l98.51,42.3c2.89.34,5.77.68,8.83.95,72.95,6.33,141.77-13.5,158.91-31.96Z"/>
      <ellipse class="uuid-95bda6fe-29c1-407b-85d9-d86d372dbaa9" cx="85.58" cy="341.84" rx="7.33" ry="7.41"/>
    </g>
  </g>
</svg>