<?xml version="1.0" encoding="UTF-8"?>
<svg id="Layer_2" data-name="Layer 2" xmlns="http://www.w3.org/2000/svg" xmlns:xlink="http://www.w3.org/1999/xlink" viewBox="0 0 494.03 492.88">
  <defs>
    <style>
      .cls-1 {
        fill: #fff;
      }

      .cls-2, .cls-3 {
        fill: #f60;
      }

      .cls-4 {
        fill: #332247;
      }

      .cls-5 {
        fill: url(#radial-gradient);
        stroke: #3465a4;
        stroke-width: .5px;
      }

      .cls-3 {
        stroke: #000;
        stroke-miterlimit: 10;
      }

      .cls-6 {
        fill: url(#radial-gradient-2);
        stroke: #555753;
        stroke-linejoin: bevel;
      }
    </style>
    <radialGradient id="radial-gradient" cx="-182.78" cy="134.22" fx="-182.78" fy="134.22" r="156.02" gradientTransform="translate(539 470.46) scale(1 -.65)" gradientUnits="userSpaceOnUse">
      <stop offset="0" stop-color="#a1bfdf"/>
      <stop offset="1" stop-color="#4f88c2"/>
    </radialGradient>
    <radialGradient id="radial-gradient-2" cx="-69.54" cy="327.55" fx="-69.54" fy="327.55" r="88.5" gradientTransform="translate(393.35 576.19) scale(.79 -.79)" gradientUnits="userSpaceOnUse">
      <stop offset="0" stop-color="#fff"/>
      <stop offset=".5" stop-color="#d8d8d3"/>
      <stop offset="1" stop-color="#8c8c7e"/>
    </radialGradient>
  </defs>
  <g id="transform_by_matrix_copy" data-name="transform by matrix copy">
    <g id="layer1">
      <rect id="rect16304" class="cls-2" x="71.28" y="81.21" width="65.15" height="64.64"/>
      <rect id="rect16325" class="cls-2" x="169.63" y="82.86" width="62.08" height="62.59"/>
      <rect id="rect16327" class="cls-2" x="263.32" y="80.81" width="65.15" height="64.64"/>
      <rect id="rect16329" class="cls-2" x="360.59" y="80.3" width="64.13" height="65.15"/>
      <rect id="rect17925" class="cls-2" x="71.28" y="176.37" width="65.15" height="64.64"/>
      <rect id="rect17927" class="cls-2" x="169.63" y="178.01" width="62.08" height="62.59"/>
      <rect id="rect17929" class="cls-2" x="263.32" y="175.96" width="65.15" height="64.64"/>
      <rect id="rect17931" class="cls-2" x="360.59" y="175.45" width="64.13" height="65.15"/>
      <rect id="rect17933" class="cls-2" x="71.28" y="274.08" width="65.15" height="64.64"/>
      <rect id="rect17935" class="cls-2" x="169.63" y="275.72" width="62.08" height="62.59"/>
      <rect id="rect17937" class="cls-2" x="263.32" y="273.67" width="65.15" height="64.64"/>
      <rect id="rect17939" class="cls-2" x="360.59" y="273.16" width="64.13" height="65.15"/>
      <rect id="rect17941" class="cls-2" x="71.28" y="371.79" width="65.15" height="64.64"/>
      <rect id="rect17943" class="cls-2" x="169.63" y="373.43" width="62.08" height="62.59"/>
      <rect id="rect17945" class="cls-2" x="263.32" y="371.38" width="65.15" height="64.64"/>
      <rect id="rect17947" class="cls-2" x="360.59" y="370.87" width="64.13" height="65.15"/>
    </g>
    <g id="layer1-2" data-name="layer1">
      <path id="path65679" class="cls-5" d="m276.1,342.41l39.53,39.14-66.66,20.37-20.69-21.76c-.92-.99-3.24-2.12-5.2,1.63l-31.03,54.04c-1.15,2.29,1.1,5.86,4.84,5.86l100.03,16.77s1.1.1,2-1.01c.76-.92.12-2.35-.87-3.36l-20.89-21.93,67.47-21.96,45.17,44.73-33.96,11.2c-2.61,1.14-2.62,3.54-.21,4.05l102.32,22.2c4.63,1.01,6.46-1.01,6.97-3.44l8.17-65.56c-1.85-.57-3.55.38-4.91.9l-29.99,12.75-45.83-43.06,59.61-22.2,23.65,21.26c.98.89,2.64,1.04,3.73.32.53-.35,14.43-50.42,14.43-50.42.19-2.19-1.99-4.11-4.92-4.37l-83.42-12.42c-.65-.06-1.36.08-1.9.43-1.1.66-1.18,1.94-.22,2.76l18.41,16.53-59.05,20.79-40.23-37.79,27.31-9.96c1.3-.43,2.72-1.65,1.55-2.81l-2.86-.65-82.88-16.68c-4.53-.73-5.84-.15-6.77,2.07l-21.76,46.76c-.98,2.38-.32,3.24.79,3.93,1.4.87,5.23-.27,6.55-.69,0,0,31.72-8.42,31.72-8.42Z"/>
      <circle id="path67487" class="cls-6" cx="353.9" cy="332.69" r="62.22"/>
    </g>
  </g>
  <g id="edu">
    <g>
      <circle class="cls-4" cx="101.14" cy="101.14" r="101.14"/>
      <path class="cls-3" d="m45.66,87.27l54.78,23.61,54.78-23.61v33.66c0,1.75-.68,3.44-1.93,4.81h0c-26.95,29.51-78.75,29.51-105.7,0h0c-1.25-1.37-1.93-3.07-1.93-4.81v-33.66Z"/>
      <path class="cls-3" d="m33.5,93.31l-.32,45.1c-.92.09-2.29,1.36-2.47,2.39l-1.74,9.66c-.13.73-.52,1.39-1.11,1.84l-.6.47c-.79.62-.58,1.89.37,2.21l7.38,2.49c.89.3,1.85-.15,2.2-1.03h0c1.07-2.7,1.42-5.44,1.62-8.5v-3.51c0-2.16-.77-5.04-2.24-5.63l.4-44.95c-.73-.67-2.63-.98-3.5-.54Z"/>
      <path class="cls-3" d="m192.23,83.62l-88.84-38.14c-1.44-.62-3.07-.62-4.5,0L10.05,83.62c-1.36.58-1.36,2.5,0,3.08l88.84,38.14c1.44.62,3.07.62,4.5,0l88.84-38.14c1.36-.58,1.36-2.5,0-3.08Z"/>
      <path class="cls-1" d="m131.49,96.73c5.96-6.41,5.69-15.25-3.52-22.7-5.83-4.72-15.6-12.79-41.03-15.82-.24-.03-5.84-.79-14.08-1.06l-12.05,5.18c8.55-.1,15.93.53,20.31.92,14.97,1.34,22.62,4.67,31.61,10.69,8.63,5.8,7.4,14.91-.07,19.85-9.98,6.6-22.29,9.44-41.23,9.25-17.42-.18-31.23-7.64-33.67-12.84-2.47-5.21-2.96-9.31,9.14-13.52,12.78-4.45,30.25-1.91,37.38,1.72,8.53,4.32,5.55,9.24-1.65,10.63-8.23,1.6-17.81.15-17.81-2.77-.03-4.2,7.6-4.11,7.6-4.11,0,0-17.24-5.52-23.72,3.04-5.96,7.87,19.74,14.17,37.98,11.06,10.15-1.72,31.7-7.46,12.57-21.08-11.2-7.99-34.81-9.3-53.05-6.56l-23.52,10.1c-2.4,3.77-1.79,7.9-.17,11.34.31.66.75,1.38,1.28,2.13l39.85,17.11c1.17.14,2.34.27,3.57.38,29.51,2.56,57.36-5.46,64.29-12.93Z"/>
      <ellipse class="cls-3" cx="34.62" cy="138.29" rx="2.97" ry="3"/>
    </g>
  </g>
</svg>