<?xml version="1.0" encoding="UTF-8"?><svg xmlns="http://www.w3.org/2000/svg" viewBox="0 0 500 500"><defs><style>.cls-1,.cls-2,.cls-3,.cls-4,.cls-5,.cls-6{stroke:#000;}.cls-1,.cls-2,.cls-3,.cls-4,.cls-6{stroke-miterlimit:10;}.cls-1,.cls-2,.cls-7,.cls-4{fill:#f60;}.cls-1,.cls-3,.cls-5{stroke-width:2px;}.cls-8{fill:#fff;}.cls-8,.cls-7{stroke-width:0px;}.cls-3,.cls-5,.cls-6{fill:none;}.cls-4,.cls-6{stroke-width:.5px;}</style></defs><g id="what_is_a_sinusoidal"><path class="cls-7" d="m248.61,265.3c-8.05,7.04-18.37,11.49-29.6,12.17,5.38,13.64,10.74,27.76,16.04,41.71,6.96,18.32,14.02,36.92,21.15,54.52,7.82-7.35,18-12.16,29.17-13.23-6.84-16.94-13.67-34.93-20.4-52.66-5.39-14.2-10.85-28.57-16.35-42.51Zm-89.97-121.34c-27.88,0-47.47,30.48-59.78,53.4-9.94,18.51-19.86,41.83-29.65,66.56.39.02.77.02,1.16.04,10.97.69,20.88,4.89,28.71,11.44,9.37-23.67,18.78-45.79,27.97-62.91,18.67-34.78,29.59-36.54,31.59-36.54,1.57,0,8.66,1.1,20.7,18.48,7.33-7.99,17.21-13.54,28.25-15.41-11.99-18.12-28.17-35.07-48.95-35.07Zm239.31,215.11c-8.38,20.83-16.77,40.12-24.99,55.42-18.67,34.78-29.59,36.54-31.59,36.54-1.22,0-5.76-.67-13.34-9.07-7.1,8.37-16.91,14.3-27.96,16.54,10.95,13.64,24.65,24.52,41.3,24.52,27.88,0,47.47-30.48,59.78-53.4,8.96-16.68,17.9-37.25,26.73-59.25-11.24-.94-21.48-5.02-29.94-11.32Z"/><path class="cls-5" d="m248.61,265.3c-8.05,7.04-18.37,11.49-29.6,12.17,5.38,13.64,10.74,27.76,16.04,41.71,6.96,18.32,14.02,36.92,21.15,54.52,7.82-7.35,18-12.16,29.17-13.23-6.84-16.94-13.67-34.93-20.4-52.66-5.39-14.2-10.85-28.57-16.35-42.51Zm-89.97-121.34c-27.88,0-47.47,30.48-59.78,53.4-9.94,18.51-19.86,41.83-29.65,66.56.39.02.77.02,1.16.04,10.97.69,20.88,4.89,28.71,11.44,9.37-23.67,18.78-45.79,27.97-62.91,18.67-34.78,29.59-36.54,31.59-36.54,1.57,0,8.66,1.1,20.7,18.48,7.33-7.99,17.21-13.54,28.25-15.41-11.99-18.12-28.17-35.07-48.95-35.07Zm239.31,215.11c-8.38,20.83-16.77,40.12-24.99,55.42-18.67,34.78-29.59,36.54-31.59,36.54-1.22,0-5.76-.67-13.34-9.07-7.1,8.37-16.91,14.3-27.96,16.54,10.95,13.64,24.65,24.52,41.3,24.52,27.88,0,47.47-30.48,59.78-53.4,8.96-16.68,17.9-37.25,26.73-59.25-11.24-.94-21.48-5.02-29.94-11.32Z"/><g id="Question_Mark"><path class="cls-1" d="m396.45,138.8c-24.28-28.41-68.58-30.4-98.96-4.45-27.76,23.72-34.27,62.56-16.67,90.77.58.93,1.84,1.13,2.67.42l15.68-13.4c.63-.54.81-1.45.42-2.17-10.18-18.67-5.47-43.33,12.42-58.62,20.34-17.38,50.01-16.05,66.27,2.98,16.26,19.03,12.95,48.54-7.39,65.92l-16.88,14.42c-.74.64-.83,1.75-.2,2.5l31.39,36.73c.64.74,1.75.83,2.5.2l12.26-10.47,5.7-4.87h0c.74-.64.83-1.75.2-2.5l-16.97-19.86c-.61-.72-.55-1.78.13-2.43,27.13-26.26,30.73-67.92,7.44-95.17Z"/><path class="cls-1" d="m435.69,265.6c-25.75-1.61-47.93,17.96-49.54,43.71-1.61,25.75,17.96,47.93,43.71,49.54,25.75,1.61,47.93-17.96,49.54-43.71,1.61-25.75-17.96-47.93-43.71-49.54Zm-2.91,71.18c-13.56,0-24.56-11-24.56-24.56s11-24.56,24.56-24.56,24.56,11,24.56,24.56-11,24.56-24.56,24.56Z"/></g><g id="Dots"><path class="cls-7" d="m292.64,370.24c-21.89-1.37-40.74,15.26-42.1,37.15-1.37,21.89,15.26,40.74,37.15,42.1,21.89,1.37,40.74-15.26,42.1-37.15,1.37-21.89-15.26-40.74-37.15-42.1Zm-2.48,60.5c-11.53,0-20.88-9.35-20.88-20.88s9.35-20.88,20.88-20.88,20.88,9.35,20.88,20.88-9.35,20.88-20.88,20.88Z"/><path class="cls-7" d="m218.41,188.32c-21.89-1.37-40.74,15.26-42.1,37.15-1.37,21.89,15.26,40.74,37.15,42.1,21.89,1.37,40.74-15.26,42.1-37.15,1.37-21.89-15.26-40.74-37.15-42.1Zm-2.48,60.5c-11.53,0-20.88-9.35-20.88-20.88s9.35-20.88,20.88-20.88,20.88,9.35,20.88,20.88-9.35,20.88-20.88,20.88Z"/><path class="cls-7" d="m69.74,273.87c-21.89-1.37-40.74,15.26-42.1,37.15-1.37,21.89,15.26,40.74,37.15,42.1,21.89,1.37,40.74-15.26,42.1-37.15,1.37-21.89-15.26-40.74-37.15-42.1Zm-2.48,60.5c-11.53,0-20.88-9.35-20.88-20.88s9.35-20.88,20.88-20.88,20.88,9.35,20.88,20.88-9.35,20.88-20.88,20.88Z"/><path class="cls-2" d="m292.64,370.24c-21.89-1.37-40.74,15.26-42.1,37.15-1.37,21.89,15.26,40.74,37.15,42.1,21.89,1.37,40.74-15.26,42.1-37.15,1.37-21.89-15.26-40.74-37.15-42.1Zm-2.48,60.5c-11.53,0-20.88-9.35-20.88-20.88s9.35-20.88,20.88-20.88,20.88,9.35,20.88,20.88-9.35,20.88-20.88,20.88Z"/><path class="cls-2" d="m218.41,188.32c-21.89-1.37-40.74,15.26-42.1,37.15-1.37,21.89,15.26,40.74,37.15,42.1,21.89,1.37,40.74-15.26,42.1-37.15,1.37-21.89-15.26-40.74-37.15-42.1Zm-2.48,60.5c-11.53,0-20.88-9.35-20.88-20.88s9.35-20.88,20.88-20.88,20.88,9.35,20.88,20.88-9.35,20.88-20.88,20.88Z"/><path class="cls-2" d="m69.74,273.87c-21.89-1.37-40.74,15.26-42.1,37.15-1.37,21.89,15.26,40.74,37.15,42.1,21.89,1.37,40.74-15.26,42.1-37.15,1.37-21.89-15.26-40.74-37.15-42.1Zm-2.48,60.5c-11.53,0-20.88-9.35-20.88-20.88s9.35-20.88,20.88-20.88,20.88,9.35,20.88,20.88-9.35,20.88-20.88,20.88Z"/><path class="cls-3" d="m292.64,370.24c-21.89-1.37-40.74,15.26-42.1,37.15-1.37,21.89,15.26,40.74,37.15,42.1,21.89,1.37,40.74-15.26,42.1-37.15,1.37-21.89-15.26-40.74-37.15-42.1Zm-2.48,60.5c-11.53,0-20.88-9.35-20.88-20.88s9.35-20.88,20.88-20.88,20.88,9.35,20.88,20.88-9.35,20.88-20.88,20.88Z"/><path class="cls-3" d="m218.41,188.32c-21.89-1.37-40.74,15.26-42.1,37.15-1.37,21.89,15.26,40.74,37.15,42.1,21.89,1.37,40.74-15.26,42.1-37.15,1.37-21.89-15.26-40.74-37.15-42.1Zm-2.48,60.5c-11.53,0-20.88-9.35-20.88-20.88s9.35-20.88,20.88-20.88,20.88,9.35,20.88,20.88-9.35,20.88-20.88,20.88Z"/><path class="cls-3" d="m69.74,273.87c-21.89-1.37-40.74,15.26-42.1,37.15-1.37,21.89,15.26,40.74,37.15,42.1,21.89,1.37,40.74-15.26,42.1-37.15,1.37-21.89-15.26-40.74-37.15-42.1Zm-2.48,60.5c-11.53,0-20.88-9.35-20.88-20.88s9.35-20.88,20.88-20.88,20.88,9.35,20.88,20.88-9.35,20.88-20.88,20.88Z"/></g></g><g id="EDU_HAT"><g id="orange"><path class="cls-4" d="m32.08,66.4l-.42,58c-1.18.11-2.94,1.75-3.18,3.08l-2.24,12.43c-.17.94-.68,1.78-1.42,2.37l-.77.61c-1.02.8-.74,2.43.48,2.84l9.5,3.2c1.14.38,2.38-.2,2.83-1.33h0c1.38-3.48,1.82-7,2.08-10.93v-4.52c0-2.78-.99-6.48-2.88-7.25l.52-57.81c-.93-.86-3.38-1.26-4.51-.69Z"/><ellipse class="cls-4" cx="33.52" cy="124.25" rx="3.82" ry="3.86"/><path class="cls-4" d="m47.72,54.47l70.45,30.36,70.45-30.36v43.28c0,2.25-.88,4.43-2.49,6.19h0c-34.65,37.95-101.27,37.95-135.93,0h0c-1.61-1.76-2.49-3.94-2.49-6.19v-43.28Z"/><path class="cls-4" d="m237.23,50.21L121.32.44c-1.44-.62-3.07-.62-4.5,0L.9,50.21c-1.36.58-1.36,2.5,0,3.08l115.91,49.77c1.44.62,3.07.62,4.5,0l115.91-49.77c1.36-.58,1.36-2.5,0-3.08Z"/><path class="cls-8" d="m159.4,66.88c7.78-8.37,7.43-19.91-4.6-29.63-7.61-6.16-20.37-16.7-53.55-20.65-.32-.03-7.62-1.03-18.38-1.38l-15.73,6.76c11.16-.13,20.8.69,26.51,1.21,19.54,1.75,29.52,6.1,41.26,13.96,11.26,7.57,9.66,19.46-.09,25.91-13.03,8.61-29.1,12.32-53.82,12.07-22.74-.23-40.76-9.97-43.95-16.76-3.22-6.8-3.86-12.15,11.93-17.65,16.68-5.81,39.49-2.49,48.8,2.25,11.14,5.64,7.24,12.06-2.15,13.88-10.75,2.08-23.24.19-23.24-3.62-.04-5.48,9.92-5.36,9.92-5.36,0,0-22.5-7.21-30.96,3.96-7.78,10.28,25.77,18.49,49.58,14.44,13.24-2.25,41.38-9.73,16.41-27.52-14.62-10.43-45.44-12.14-69.25-8.57l-30.71,13.18c-3.13,4.92-2.33,10.31-.23,14.8.41.86.98,1.8,1.67,2.77l52.02,22.34c1.53.18,3.05.36,4.66.5,38.52,3.34,74.87-7.13,83.91-16.88Z"/><path class="cls-6" d="m237.23,50.21L121.32.44c-1.44-.62-3.07-.62-4.5,0L.9,50.21c-1.36.58-1.36,2.5,0,3.08l115.91,49.77c1.44.62,3.07.62,4.5,0l115.91-49.77c1.36-.58,1.36-2.5,0-3.08Z"/></g></g></svg>